# xmcd
#
# Track frame offsets: 
#        150
#        15293
#        28738
#        44601
#        65248
#        80633
#        94548
#        107851
#        123103
#        136592
#        153441
#        168011
#        185732
#        200589
#        215094
#        229126
#        242808
#        258486
#        275527
#        289338
#        303606
#
# Disc length: 4243 seconds
#
# Revision: 0
# Processed by: cddbd v1.5.2PL0 Copyright (c) Steve Scherf et al.
# Submitted via: ExactAudioCopy v1.3
#
DISCID=34109115
DTITLE=Mūzikas kolekcija - Bolderāja-Paragvaja
DYEAR=2013
DGENRE=Latvian
TTITLE0=Meitene no Paragvajas
TTITLE1=Lidojums
TTITLE2=Meitenes no Bolderājas
TTITLE3=Mīlas saliņas blūzs
TTITLE4=Disko dzimst Bolderājā
TTITLE5=Par sievām
TTITLE6=Latgaļu meiča
TTITLE7=Bolderājā nakts
TTITLE8=Nu tik būs
TTITLE9=Mātes mīlestība
TTITLE10=Zvejas svētki
TTITLE11=Nezināmais
TTITLE12=Parīcija
TTITLE13=Valsis tikai mums
TTITLE14=Vai tev neilgojas sirds?
TTITLE15=Brāļu mīlestība
TTITLE16=Alus spēks
TTITLE17=Mūža deja
TTITLE18=Mana Rīga
TTITLE19=Atmiņas
TTITLE20=Bolderājas krogā
EXTD=
EXTT0=
EXTT1=
EXTT2=
EXTT3=
EXTT4=
EXTT5=
EXTT6=
EXTT7=
EXTT8=
EXTT9=
EXTT10=
EXTT11=
EXTT12=
EXTT13=
EXTT14=
EXTT15=
EXTT16=
EXTT17=
EXTT18=
EXTT19=
EXTT20=
PLAYORDER=
